<svg xmlns="http://www.w3.org/2000/svg" viewBox="100 100 1300 1300">
  <!-- Dark square background with rounded corners -->
  <rect x="100" y="100" width="1300" height="1300" rx="220" fill="#090909"/>
  <!-- Real Fazed logo mark — white -->
  <g transform="translate(0 1500) scale(0.1 -0.1)" fill="#F5F4F0">
    <path d="M7445 12847 c-22 -13 -348 -206 -725 -429 -377 -222 -723 -427 -770 -455 -47 -27 -506 -299 -1020 -603 -514 -303 -969 -572 -1012 -597 -43 -25 -87 -56 -98 -70 -20 -26 -20 -37 -20 -3282 0 -2590 3 -3261 13 -3274 17 -22 3645 -2000 3679 -2005 26 -4 692 354 2443 1313 143 79 481 263 750 409 270 147 496 274 503 283 19 26 18 1456 -2 1472 -10 8 -27 4 -72 -20 -32 -18 -854 -465 -1826 -995 -972 -530 -1776 -964 -1787 -964 -24 0 -2303 1299 -2338 1332 l-23 21 0 2517 0 2517 23 20 c12 11 326 199 697 418 371 219 945 558 1275 753 884 522 1310 774 1495 883 118 70 166 103 168 118 3 18 -78 61 -637 341 -353 176 -649 320 -658 320 -10 0 -36 -11 -58 -23z"/>
    <path d="M9455 11664 c-28 -15 -295 -161 -595 -324 -300 -163 -624 -340 -720 -392 -96 -53 -195 -107 -220 -121 -25 -13 -241 -131 -480 -262 -239 -130 -500 -272 -580 -316 -80 -44 -341 -186 -580 -317 -319 -174 -438 -244 -447 -262 -17 -33 -19 -4306 -2 -4342 8 -18 164 -100 645 -341 349 -174 643 -317 653 -317 11 0 21 9 25 23 3 12 6 949 6 2083 l0 2061 23 20 c12 11 398 242 857 513 459 271 900 532 980 579 80 48 511 303 958 566 447 264 822 488 833 498 11 10 17 23 13 28 -9 15 -1281 649 -1302 649 -9 0 -40 -12 -67 -26z"/>
    <path d="M11135 10316 c-11 -7 -74 -42 -140 -78 -66 -36 -230 -126 -365 -201 -720 -396 -2614 -1437 -2698 -1482 -30 -16 -62 -40 -73 -53 -19 -24 -19 -70 -19 -1918 0 -1695 2 -1894 15 -1908 14 -14 79 16 664 309 366 182 651 331 655 340 3 9 6 537 6 1174 l0 1158 23 20 c12 12 456 274 987 583 531 309 975 573 988 586 l22 25 0 718 c0 725 -1 742 -34 740 -6 0 -20 -6 -31 -13z"/>
  </g>
  <!-- Accent dot -->
  <circle cx="1280" cy="230" r="80" fill="#C9FF57"/>
</svg>
