<svg xmlns="http://www.w3.org/2000/svg" viewBox="0 0 1200 750" width="1200" height="750">
  <defs>
    <linearGradient id="cgHero" x1="0%" y1="0%" x2="100%" y2="100%">
      <stop offset="0%" style="stop-color:#f8fdf9;stop-opacity:1" />
      <stop offset="100%" style="stop-color:#edf7f0;stop-opacity:1" />
    </linearGradient>
    <linearGradient id="cgGreen" x1="0%" y1="0%" x2="100%" y2="100%">
      <stop offset="0%" style="stop-color:#2d8a4e;stop-opacity:1" />
      <stop offset="100%" style="stop-color:#3aa660;stop-opacity:1" />
    </linearGradient>
    <linearGradient id="cgCard" x1="0%" y1="0%" x2="0%" y2="100%">
      <stop offset="0%" style="stop-color:#ffffff;stop-opacity:1" />
      <stop offset="100%" style="stop-color:#f4fbf6;stop-opacity:1" />
    </linearGradient>
    <linearGradient id="cgFooter" x1="0%" y1="0%" x2="100%" y2="100%">
      <stop offset="0%" style="stop-color:#1c6634;stop-opacity:1" />
      <stop offset="100%" style="stop-color:#2d8a4e;stop-opacity:1" />
    </linearGradient>
    <clipPath id="cgBrowserClip">
      <rect x="0" y="0" width="1200" height="750" rx="10" ry="10"/>
    </clipPath>
  </defs>

  <g clip-path="url(#cgBrowserClip)">
    <!-- Browser chrome -->
    <rect x="0" y="0" width="1200" height="44" fill="#2b2b2b"/>
    <circle cx="20" cy="22" r="6" fill="#ff5f57"/>
    <circle cx="40" cy="22" r="6" fill="#febc2e"/>
    <circle cx="60" cy="22" r="6" fill="#28c840"/>
    <rect x="200" y="10" width="800" height="24" rx="12" fill="#3a3a3a"/>
    <text x="600" y="26" font-family="system-ui, sans-serif" font-size="11" fill="#aaa" text-anchor="middle">cleenandgreen.com</text>

    <!-- Nav -->
    <rect x="0" y="44" width="1200" height="62" fill="#ffffff"/>
    <rect x="0" y="105" width="1200" height="1" fill="rgba(0,0,0,0.08)"/>
    <!-- Logo -->
    <circle cx="65" cy="75" r="14" fill="#2d8a4e" opacity="0.15"/>
    <circle cx="65" cy="75" r="8" fill="#2d8a4e"/>
    <text x="85" y="72" font-family="system-ui, sans-serif" font-size="15" font-weight="800" fill="#1c6634">Cleen</text>
    <text x="134" y="72" font-family="system-ui, sans-serif" font-size="15" font-weight="800" fill="#3aa660">&amp;</text>
    <text x="148" y="72" font-family="system-ui, sans-serif" font-size="15" font-weight="800" fill="#1c6634">Green</text>
    <text x="85" y="84" font-family="system-ui, sans-serif" font-size="8" fill="#888" letter-spacing="1.5">ECO-FRIENDLY CLEANING</text>
    <!-- Nav links -->
    <text x="680" y="79" font-family="system-ui, sans-serif" font-size="12" fill="#444">Services</text>
    <text x="760" y="79" font-family="system-ui, sans-serif" font-size="12" fill="#444">About</text>
    <text x="826" y="79" font-family="system-ui, sans-serif" font-size="12" fill="#444">Franchise</text>
    <text x="910" y="79" font-family="system-ui, sans-serif" font-size="12" fill="#444">Contact</text>
    <!-- CTA -->
    <rect x="1020" y="58" width="128" height="32" rx="16" fill="url(#cgGreen)"/>
    <text x="1084" y="78" font-family="system-ui, sans-serif" font-size="11" font-weight="700" fill="#fff" text-anchor="middle">Get Free Quote</text>

    <!-- Hero -->
    <rect x="0" y="106" width="1200" height="340" fill="url(#cgHero)"/>
    <!-- Leaf decoration right -->
    <ellipse cx="980" cy="276" rx="140" ry="185" transform="rotate(-20 980 276)" fill="rgba(45,138,78,0.06)"/>
    <ellipse cx="1050" cy="240" rx="100" ry="160" transform="rotate(15 1050 240)" fill="rgba(45,138,78,0.05)"/>
    <circle cx="1100" cy="370" r="80" fill="rgba(45,138,78,0.05)"/>
    <!-- Badge -->
    <rect x="80" y="134" width="188" height="22" rx="11" fill="rgba(45,138,78,0.12)"/>
    <circle cx="94" cy="145" r="5" fill="#3aa660"/>
    <text x="105" y="149" font-family="system-ui, sans-serif" font-size="10" font-weight="600" fill="#2d8a4e" letter-spacing="0.5">100% Eco-Certified Products</text>
    <!-- Hero heading -->
    <text x="80" y="210" font-family="Georgia, serif" font-size="48" font-weight="700" fill="#1a3d26">A Cleaner Home.</text>
    <text x="80" y="264" font-family="Georgia, serif" font-size="48" font-weight="700" fill="#2d8a4e">A Greener World.</text>
    <text x="80" y="308" font-family="system-ui, sans-serif" font-size="14" fill="#666" letter-spacing="0.2">Premium cleaning services using all-natural, eco-safe products.</text>
    <text x="80" y="326" font-family="system-ui, sans-serif" font-size="14" fill="#666" letter-spacing="0.2">No time limits. Supervisor-inspected. Family &amp; pet safe.</text>
    <!-- Buttons -->
    <rect x="80" y="352" width="160" height="42" rx="21" fill="url(#cgGreen)"/>
    <text x="160" y="378" font-family="system-ui, sans-serif" font-size="13" font-weight="700" fill="#fff" text-anchor="middle">Book a Clean</text>
    <rect x="256" y="352" width="150" height="42" rx="21" fill="transparent" stroke="#2d8a4e" stroke-width="1.5"/>
    <text x="331" y="378" font-family="system-ui, sans-serif" font-size="13" font-weight="600" fill="#2d8a4e" text-anchor="middle">Learn More</text>
    <!-- Trust badges -->
    <text x="80" y="424" font-family="system-ui, sans-serif" font-size="11" fill="#999">✓ No time limits      ✓ Supervisor checked      ✓ 5★ rated</text>

    <!-- Services section -->
    <rect x="0" y="446" width="1200" height="160" fill="#ffffff"/>
    <rect x="0" y="446" width="1200" height="1" fill="rgba(0,0,0,0.06)"/>
    <text x="600" y="476" font-family="system-ui, sans-serif" font-size="11" font-weight="700" fill="#2d8a4e" text-anchor="middle" letter-spacing="3">OUR SERVICES</text>
    <!-- Service pills -->
    <rect x="48" y="490" width="200" height="56" rx="8" fill="url(#cgCard)" stroke="rgba(45,138,78,0.15)" stroke-width="1"/>
    <circle cx="68" cy="510" r="8" fill="rgba(45,138,78,0.12)"/>
    <circle cx="68" cy="510" r="4" fill="#3aa660"/>
    <text x="84" y="513" font-family="system-ui, sans-serif" font-size="12" font-weight="700" fill="#1c3d26">Deep House Clean</text>
    <text x="84" y="530" font-family="system-ui, sans-serif" font-size="10" fill="#888">Full interior deep clean</text>

    <rect x="268" y="490" width="200" height="56" rx="8" fill="url(#cgCard)" stroke="rgba(45,138,78,0.15)" stroke-width="1"/>
    <circle cx="288" cy="510" r="8" fill="rgba(45,138,78,0.12)"/>
    <circle cx="288" cy="510" r="4" fill="#3aa660"/>
    <text x="304" y="513" font-family="system-ui, sans-serif" font-size="12" font-weight="700" fill="#1c3d26">Post-Construction</text>
    <text x="304" y="530" font-family="system-ui, sans-serif" font-size="10" fill="#888">After-build clean-up</text>

    <rect x="488" y="490" width="200" height="56" rx="8" fill="url(#cgCard)" stroke="rgba(45,138,78,0.15)" stroke-width="1"/>
    <circle cx="508" cy="510" r="8" fill="rgba(45,138,78,0.12)"/>
    <circle cx="508" cy="510" r="4" fill="#3aa660"/>
    <text x="524" y="513" font-family="system-ui, sans-serif" font-size="12" font-weight="700" fill="#1c3d26">Disinfection</text>
    <text x="524" y="530" font-family="system-ui, sans-serif" font-size="10" fill="#888">Steam sterilization</text>

    <rect x="708" y="490" width="200" height="56" rx="8" fill="url(#cgCard)" stroke="rgba(45,138,78,0.15)" stroke-width="1"/>
    <circle cx="728" cy="510" r="8" fill="rgba(45,138,78,0.12)"/>
    <circle cx="728" cy="510" r="4" fill="#3aa660"/>
    <text x="744" y="513" font-family="system-ui, sans-serif" font-size="12" font-weight="700" fill="#1c3d26">Car Interior</text>
    <text x="744" y="530" font-family="system-ui, sans-serif" font-size="10" fill="#888">Full detail shampooing</text>

    <rect x="928" y="490" width="200" height="56" rx="8" fill="rgba(45,138,78,0.08)" stroke="rgba(45,138,78,0.25)" stroke-width="1.5"/>
    <text x="1028" y="520" font-family="system-ui, sans-serif" font-size="12" font-weight="700" fill="#2d8a4e" text-anchor="middle">+ 3 More Services</text>
    <text x="1028" y="536" font-family="system-ui, sans-serif" font-size="10" fill="#3aa660" text-anchor="middle">View all →</text>

    <!-- Testimonial strip -->
    <rect x="0" y="606" width="1200" height="80" fill="#f0faf3"/>
    <rect x="0" y="606" width="1200" height="1" fill="rgba(45,138,78,0.15)"/>
    <text x="600" y="635" font-family="Georgia, serif" font-size="13" font-style="italic" fill="#2d4a36" text-anchor="middle">"They didn't leave until every corner was spotless. Best cleaning service in Manila!"</text>
    <text x="600" y="658" font-family="system-ui, sans-serif" font-size="11" fill="#888" text-anchor="middle">— Maria T.   ★★★★★</text>

    <!-- Footer bar -->
    <rect x="0" y="686" width="1200" height="64" fill="url(#cgFooter)"/>
    <text x="80" y="722" font-family="system-ui, sans-serif" font-size="12" font-weight="700" fill="rgba(255,255,255,0.9)">Cleen &amp; Green</text>
    <text x="600" y="722" font-family="system-ui, sans-serif" font-size="11" fill="rgba(255,255,255,0.5)" text-anchor="middle">© 2025 Cleen &amp; Green · Philippines · info@cleenandgreen.com</text>
    <rect x="950" y="708" width="110" height="26" rx="13" fill="rgba(255,255,255,0.12)"/>
    <text x="1005" y="726" font-family="system-ui, sans-serif" font-size="11" fill="rgba(255,255,255,0.7)" text-anchor="middle">Franchise Info</text>
  </g>
</svg>
