<svg xmlns="http://www.w3.org/2000/svg" viewBox="0 0 1200 750" width="1200" height="750">
  <defs>
    <linearGradient id="tcHero" x1="0%" y1="0%" x2="100%" y2="100%">
      <stop offset="0%" style="stop-color:#f5f7fa;stop-opacity:1"/>
      <stop offset="100%" style="stop-color:#eef1f6;stop-opacity:1"/>
    </linearGradient>
    <linearGradient id="tcBlue" x1="0%" y1="0%" x2="100%" y2="100%">
      <stop offset="0%" style="stop-color:#1a56db;stop-opacity:1"/>
      <stop offset="100%" style="stop-color:#1e40af;stop-opacity:1"/>
    </linearGradient>
    <linearGradient id="tcDark" x1="0%" y1="0%" x2="100%" y2="100%">
      <stop offset="0%" style="stop-color:#111827;stop-opacity:1"/>
      <stop offset="100%" style="stop-color:#1e293b;stop-opacity:1"/>
    </linearGradient>
    <clipPath id="tcClip">
      <rect x="0" y="0" width="1200" height="750" rx="10" ry="10"/>
    </clipPath>
  </defs>
  <g clip-path="url(#tcClip)">
    <!-- Browser chrome -->
    <rect x="0" y="0" width="1200" height="44" fill="#2b2b2b"/>
    <circle cx="20" cy="22" r="6" fill="#ff5f57"/>
    <circle cx="40" cy="22" r="6" fill="#febc2e"/>
    <circle cx="60" cy="22" r="6" fill="#28c840"/>
    <rect x="200" y="10" width="800" height="24" rx="12" fill="#3a3a3a"/>
    <text x="600" y="26" font-family="system-ui, sans-serif" font-size="11" fill="#aaa" text-anchor="middle">thetelecomshop.com/au</text>

    <!-- Top bar -->
    <rect x="0" y="44" width="1200" height="28" fill="#111827"/>
    <text x="80" y="62" font-family="system-ui, sans-serif" font-size="10" fill="rgba(255,255,255,0.45)">Free shipping on orders over $99 AUD</text>
    <text x="950" y="62" font-family="system-ui, sans-serif" font-size="10" fill="rgba(255,255,255,0.45)">Track Order</text>
    <text x="1040" y="62" font-family="system-ui, sans-serif" font-size="10" fill="rgba(255,255,255,0.45)">Support</text>
    <text x="1100" y="62" font-family="system-ui, sans-serif" font-size="10" fill="rgba(255,255,255,0.45)">AU ▾</text>

    <!-- Nav -->
    <rect x="0" y="72" width="1200" height="60" fill="#ffffff"/>
    <rect x="0" y="131" width="1200" height="1" fill="rgba(0,0,0,0.08)"/>
    <!-- Logo -->
    <rect x="48" y="84" width="32" height="32" rx="6" fill="url(#tcBlue)"/>
    <text x="64" y="105" font-family="system-ui, sans-serif" font-size="12" font-weight="900" fill="#fff" text-anchor="middle">TS</text>
    <text x="90" y="98" font-family="system-ui, sans-serif" font-size="13" font-weight="800" fill="#111827">The Telecom Shop</text>
    <text x="90" y="112" font-family="system-ui, sans-serif" font-size="9" fill="#888" letter-spacing="1">AUSTRALIA</text>
    <!-- Category nav -->
    <text x="380" y="107" font-family="system-ui, sans-serif" font-size="12" fill="#374151">Phones</text>
    <text x="448" y="107" font-family="system-ui, sans-serif" font-size="12" fill="#374151">Tablets</text>
    <text x="518" y="107" font-family="system-ui, sans-serif" font-size="12" fill="#374151">Accessories</text>
    <text x="618" y="107" font-family="system-ui, sans-serif" font-size="12" fill="#374151">Plans</text>
    <text x="676" y="107" font-family="system-ui, sans-serif" font-size="12" fill="#374151">Repairs</text>
    <text x="742" y="107" font-family="system-ui, sans-serif" font-size="12" fill="#374151">Brands</text>
    <!-- Search + cart -->
    <rect x="850" y="84" width="240" height="30" rx="6" fill="#f3f4f6" stroke="rgba(0,0,0,0.1)" stroke-width="1"/>
    <text x="870" y="103" font-family="system-ui, sans-serif" font-size="11" fill="#9ca3af">Search phones, plans, accessories...</text>
    <rect x="1112" y="84" width="40" height="30" rx="6" fill="url(#tcBlue)"/>
    <text x="1132" y="103" font-family="system-ui, sans-serif" font-size="13" fill="#fff" text-anchor="middle">🛒</text>

    <!-- Hero banner -->
    <rect x="0" y="132" width="1200" height="220" fill="url(#tcDark)"/>
    <ellipse cx="900" cy="242" rx="320" ry="180" fill="rgba(26,86,219,0.15)"/>
    <text x="80" y="172" font-family="system-ui, sans-serif" font-size="10" font-weight="700" fill="#60a5fa" letter-spacing="3">NEW ARRIVAL</text>
    <text x="80" y="222" font-family="system-ui, sans-serif" font-size="46" font-weight="900" fill="#ffffff">iPhone 16 Pro.</text>
    <text x="80" y="264" font-family="system-ui, sans-serif" font-size="16" fill="rgba(255,255,255,0.5)">Starting from $1,999 AUD · Ships free today</text>
    <rect x="80" y="290" width="156" height="38" rx="6" fill="url(#tcBlue)"/>
    <text x="158" y="313" font-family="system-ui, sans-serif" font-size="12" font-weight="700" fill="#fff" text-anchor="middle">Shop Now</text>
    <rect x="252" y="290" width="130" height="38" rx="6" fill="rgba(255,255,255,0.08)" stroke="rgba(255,255,255,0.2)" stroke-width="1"/>
    <text x="317" y="313" font-family="system-ui, sans-serif" font-size="12" fill="rgba(255,255,255,0.7)" text-anchor="middle">Compare</text>
    <!-- Phone silhouette -->
    <rect x="880" y="148" width="96" height="186" rx="12" fill="rgba(255,255,255,0.06)" stroke="rgba(255,255,255,0.12)" stroke-width="1.5"/>
    <rect x="890" y="162" width="76" height="130" rx="4" fill="rgba(26,86,219,0.2)"/>
    <rect x="916" y="155" width="28" height="5" rx="2" fill="rgba(255,255,255,0.2)"/>

    <!-- Category strip -->
    <rect x="0" y="352" width="1200" height="70" fill="#f9fafb"/>
    <rect x="0" y="352" width="1200" height="1" fill="rgba(0,0,0,0.05)"/>
    <rect x="0" y="421" width="1200" height="1" fill="rgba(0,0,0,0.05)"/>
    <text x="600" y="377" font-family="system-ui, sans-serif" font-size="10" font-weight="700" fill="#6b7280" text-anchor="middle" letter-spacing="2">SHOP BY CATEGORY</text>
    <rect x="80" y="387" width="140" height="24" rx="12" fill="#eff6ff" stroke="rgba(26,86,219,0.2)" stroke-width="1"/>
    <text x="150" y="403" font-family="system-ui, sans-serif" font-size="11" fill="#1a56db" text-anchor="middle">📱 Smartphones</text>
    <rect x="236" y="387" width="120" height="24" rx="12" fill="#f9fafb" stroke="rgba(0,0,0,0.08)" stroke-width="1"/>
    <text x="296" y="403" font-family="system-ui, sans-serif" font-size="11" fill="#374151" text-anchor="middle">📟 Tablets</text>
    <rect x="372" y="387" width="130" height="24" rx="12" fill="#f9fafb" stroke="rgba(0,0,0,0.08)" stroke-width="1"/>
    <text x="437" y="403" font-family="system-ui, sans-serif" font-size="11" fill="#374151" text-anchor="middle">🎧 Accessories</text>
    <rect x="518" y="387" width="100" height="24" rx="12" fill="#f9fafb" stroke="rgba(0,0,0,0.08)" stroke-width="1"/>
    <text x="568" y="403" font-family="system-ui, sans-serif" font-size="11" fill="#374151" text-anchor="middle">📡 Plans</text>

    <!-- Product grid -->
    <rect x="0" y="422" width="1200" height="200" fill="#ffffff"/>
    <text x="80" y="452" font-family="system-ui, sans-serif" font-size="13" font-weight="800" fill="#111827">Featured Phones</text>
    <text x="1100" y="452" font-family="system-ui, sans-serif" font-size="11" fill="#1a56db">View all →</text>

    <!-- Product card 1 -->
    <rect x="80" y="462" width="220" height="140" rx="8" fill="#f9fafb" stroke="rgba(0,0,0,0.06)" stroke-width="1"/>
    <rect x="130" y="474" width="120" height="72" rx="4" fill="#e5e7eb"/>
    <text x="190" y="516" font-family="system-ui, sans-serif" font-size="9" fill="#9ca3af" text-anchor="middle">iPhone 16 Pro</text>
    <text x="100" y="564" font-family="system-ui, sans-serif" font-size="11" font-weight="700" fill="#111827">iPhone 16 Pro Max</text>
    <text x="100" y="580" font-family="system-ui, sans-serif" font-size="10" fill="#1a56db" font-weight="700">$1,999 AUD</text>
    <text x="100" y="594" font-family="system-ui, sans-serif" font-size="9" fill="#9ca3af">or $83/mo</text>

    <!-- Product card 2 -->
    <rect x="316" y="462" width="220" height="140" rx="8" fill="#f9fafb" stroke="rgba(0,0,0,0.06)" stroke-width="1"/>
    <rect x="366" y="474" width="120" height="72" rx="4" fill="#e5e7eb"/>
    <text x="426" y="516" font-family="system-ui, sans-serif" font-size="9" fill="#9ca3af" text-anchor="middle">Samsung S25</text>
    <text x="336" y="564" font-family="system-ui, sans-serif" font-size="11" font-weight="700" fill="#111827">Samsung Galaxy S25</text>
    <text x="336" y="580" font-family="system-ui, sans-serif" font-size="10" fill="#1a56db" font-weight="700">$1,649 AUD</text>
    <text x="336" y="594" font-family="system-ui, sans-serif" font-size="9" fill="#9ca3af">or $68/mo</text>

    <!-- Product card 3 -->
    <rect x="552" y="462" width="220" height="140" rx="8" fill="#f9fafb" stroke="rgba(0,0,0,0.06)" stroke-width="1"/>
    <rect x="602" y="474" width="120" height="72" rx="4" fill="#e5e7eb"/>
    <text x="662" y="516" font-family="system-ui, sans-serif" font-size="9" fill="#9ca3af" text-anchor="middle">Google Pixel 9</text>
    <text x="572" y="564" font-family="system-ui, sans-serif" font-size="11" font-weight="700" fill="#111827">Google Pixel 9 Pro</text>
    <text x="572" y="580" font-family="system-ui, sans-serif" font-size="10" fill="#1a56db" font-weight="700">$1,449 AUD</text>
    <text x="572" y="594" font-family="system-ui, sans-serif" font-size="9" fill="#9ca3af">or $60/mo</text>

    <!-- Product card 4 -->
    <rect x="788" y="462" width="220" height="140" rx="8" fill="#f9fafb" stroke="rgba(0,0,0,0.06)" stroke-width="1"/>
    <rect x="838" y="474" width="120" height="72" rx="4" fill="#e5e7eb"/>
    <text x="898" y="516" font-family="system-ui, sans-serif" font-size="9" fill="#9ca3af" text-anchor="middle">OnePlus 13</text>
    <text x="808" y="564" font-family="system-ui, sans-serif" font-size="11" font-weight="700" fill="#111827">OnePlus 13</text>
    <text x="808" y="580" font-family="system-ui, sans-serif" font-size="10" fill="#1a56db" font-weight="700">$1,199 AUD</text>
    <text x="808" y="594" font-family="system-ui, sans-serif" font-size="9" fill="#9ca3af">or $49/mo</text>

    <!-- Footer -->
    <rect x="0" y="622" width="1200" height="128" fill="url(#tcDark)"/>
    <text x="80" y="656" font-family="system-ui, sans-serif" font-size="13" font-weight="800" fill="#fff">The Telecom Shop</text>
    <text x="80" y="673" font-family="system-ui, sans-serif" font-size="9" fill="rgba(255,255,255,0.3)" letter-spacing="1">AUSTRALIA</text>
    <text x="400" y="660" font-family="system-ui, sans-serif" font-size="11" fill="rgba(255,255,255,0.4)">Phones</text>
    <text x="470" y="660" font-family="system-ui, sans-serif" font-size="11" fill="rgba(255,255,255,0.4)">Tablets</text>
    <text x="540" y="660" font-family="system-ui, sans-serif" font-size="11" fill="rgba(255,255,255,0.4)">Accessories</text>
    <text x="640" y="660" font-family="system-ui, sans-serif" font-size="11" fill="rgba(255,255,255,0.4)">Plans</text>
    <text x="600" y="720" font-family="system-ui, sans-serif" font-size="10" fill="rgba(255,255,255,0.2)" text-anchor="middle">© 2025 The Telecom Shop · ABN 00 000 000 000 · All prices in AUD incl. GST</text>
  </g>
</svg>
